<svg width="40" height="40" viewBox="0 0 40 40" fill="none" xmlns="http://www.w3.org/2000/svg">
<path fill-rule="evenodd" clip-rule="evenodd" d="M7.27273 0C5.34388 0 3.49403 0.766232 2.13013 2.13013C0.766232 3.49403 0 5.34388 0 7.27273V32.7273C0 34.6561 0.766232 36.506 2.13013 37.8699C3.49403 39.2338 5.34388 40 7.27273 40H32.7273C34.6561 40 36.506 39.2338 37.8699 37.8699C39.2338 36.506 40 34.6561 40 32.7273V7.27273C40 5.34388 39.2338 3.49403 37.8699 2.13013C36.506 0.766232 34.6561 0 32.7273 0H7.27273ZM5.45455 24.5964L10.0509 15.4036H22.8545V18.0891C23.4062 17.6263 24.1036 17.3732 24.8236 17.3745C26.7564 17.3745 28.1055 19.1182 28.1055 20.9855C28.1055 22.8509 26.7564 24.5964 24.8236 24.5964C24.06 24.5964 23.3873 24.3236 22.8527 23.88V24.5964H20.8836V16.06L16.6164 24.5964H5.45455ZM28.1055 20.9855C28.1055 19.1182 29.4564 17.3745 31.3891 17.3745C32.9745 17.3745 34.1673 18.5473 34.5455 20H32.44C32.1782 19.5764 31.7636 19.3436 31.3891 19.3436C30.7836 19.3436 30.0764 19.9509 30.0764 20.9855C30.0764 22.0182 30.7836 22.6255 31.3891 22.6255C31.7636 22.6255 32.1782 22.3927 32.44 21.9709H34.5455C34.1673 23.4218 32.9745 24.5964 31.3891 24.5964C29.4564 24.5964 28.1055 22.8509 28.1055 20.9855ZM24.8236 19.3436C24.2182 19.3436 23.5109 19.9509 23.5109 20.9855C23.5109 22.0182 24.2182 22.6255 24.8236 22.6255C25.4291 22.6255 26.1364 22.0182 26.1364 20.9855C26.1364 19.9491 25.4291 19.3436 24.8236 19.3436Z" fill="white"/>
</svg>
