<svg width="148" height="50" viewBox="0 0 148 50" fill="none" xmlns="http://www.w3.org/2000/svg">
<g clip-path="url(#clip0_32_75)">
<path d="M12.6678 16.5C12.4169 19.9375 10.0339 23.375 5.2678 23.375H0L1.19153 9.875H6.52203C11.1627 9.875 12.9186 13.125 12.6678 16.5ZM2.75932 20.875H5.51864C8.59153 20.875 10.0339 18.625 10.1593 16.4375C10.2847 14.375 9.21864 12.25 6.27119 12.25H3.51186L2.75932 20.875Z" fill="white"/>
<path d="M27.8441 16.6875C27.5305 20.1875 25.0847 23.6875 20.2559 23.6875C15.4271 23.6875 13.6085 20.25 13.922 16.75C14.2356 13.25 16.8695 9.5625 21.5102 9.5625C26.1508 9.5625 28.2203 13.125 27.8441 16.6875ZM16.4932 16.75C16.3678 19 17.3712 21.3125 20.5068 21.3125C23.6424 21.3125 25.0847 18.9375 25.3356 16.6875C25.5864 14.5 24.5203 11.875 21.322 11.875C18.1237 11.875 16.6186 14.4375 16.4932 16.75Z" fill="white"/>
<path d="M39.2576 9.8125H41.8288L40.6373 23.375H39.0068L32.7356 14.25L31.9203 23.375H29.3492L30.5407 9.875H32.6102L38.5051 18.25L39.2576 9.8125Z" fill="white"/>
<path d="M52.8034 20.8125H45.717L44.3373 23.375H41.578L48.7898 9.875H51.6119L56.5034 23.375H53.7441L52.8034 20.8125ZM49.9814 12.6875L46.9712 18.4375H51.9881L49.9814 12.6875Z" fill="white"/>
<path d="M59.9525 12.1875H55.6254L55.8136 9.875H66.9763L66.7881 12.1875H62.461L61.5203 23.375H58.9492L59.9525 12.1875Z" fill="white"/>
<path d="M67.3525 23.375L68.5441 9.875H71.0525L69.861 23.375H67.3525Z" fill="white"/>
<path d="M86.6051 16.6875C86.2288 20.1875 83.7831 23.6875 79.0169 23.6875C74.2508 23.6875 72.3695 20.25 72.6831 16.75C72.9966 13.25 75.5678 9.5625 80.2712 9.5625C84.9746 9.5625 86.9186 13.125 86.6051 16.6875ZM75.1915 16.75C75.0661 19 76.0695 21.3125 79.2678 21.3125C82.4661 21.3125 83.8458 18.9375 84.0966 16.6875C84.3475 14.4375 83.2814 11.8125 80.083 11.8125C76.8847 11.8125 75.317 14.4375 75.1915 16.75Z" fill="white"/>
<path d="M97.9559 9.8125H100.527L99.3356 23.375H97.7678L91.4339 14.25L90.6186 23.375H88.1102L89.239 9.875H91.3085L97.2661 18.25L97.9559 9.8125Z" fill="white"/>
<path d="M33.6136 39.9375H26.5271L25.1475 42.5H22.3881L29.6627 28.9375H32.422L37.3136 42.5H34.4915L33.6136 39.9375ZM30.7288 31.8125L27.7186 37.5625H32.7356L30.7288 31.8125Z" fill="white"/>
<path d="M42.3932 28.9375L41.3898 40.125H48.3508L48.1627 42.5H38.6305L39.822 28.9375H42.3932Z" fill="white"/>
<path d="M60.078 42.5H49.9186C50.2949 38 50.7339 33.4375 51.1102 28.9375H61.2695L61.0814 31.4375H53.4305L53.1797 34.5625H60.5169L60.3288 36.9375H52.9288L52.678 40H60.2661L60.078 42.5Z" fill="white"/>
<path d="M74.0627 42.5H71.0525L67.478 38H65.0322L64.5932 42.5H62.0847L63.2763 28.9375C65.4085 28.9375 67.5407 28.9375 69.7356 28.9375C72.9339 28.9375 74.439 31.0625 74.2508 33.4375C74.1881 35.5625 72.5576 37.375 70.4254 37.6875L74.1254 42.3125L74.0627 42.5ZM65.5966 31.3125L65.2203 35.625H69.1085C69.7356 35.6875 70.3627 35.4375 70.8017 35.0625C71.3034 34.625 71.5542 34.0625 71.6169 33.4375C71.6797 32.875 71.4915 32.25 71.1153 31.8125C70.6763 31.375 70.1119 31.1875 69.4847 31.25H65.5966V31.3125Z" fill="white"/>
<path d="M80.2085 31.25H75.8814L76.0695 28.9375H87.2322L87.0441 31.25H82.7169L81.7763 42.5H79.2051L80.2085 31.25Z" fill="white"/>
<path d="M96.8898 32.1875C96.5136 31.4375 95.2593 30.6875 93.817 30.6875C91.9356 30.6875 90.9322 31.5 90.8695 32.5C90.7441 33.6875 92.1237 34 93.7542 34.1875C96.5763 34.5625 99.1475 35.25 98.8339 38.5C98.5831 41.5 95.761 42.8125 92.7508 42.8125C89.9915 42.8125 87.922 41.9375 87.1068 39.5L89.3644 38.375C89.8661 39.875 91.3712 40.5 93.0017 40.5C94.6322 40.5 96.2 39.9375 96.2627 38.5C96.3881 37.25 95.0712 36.6875 93.3153 36.5C90.5559 36.1875 88.1102 35.4375 88.361 32.375C88.6119 29.5625 91.4339 28.4375 93.9424 28.4375C96.0746 28.4375 98.2068 29.0625 99.022 31.125L96.8898 32.1875Z" fill="white"/>
<path d="M147.122 16.0625L138.217 5.75C137.778 5.25 137.214 5 136.586 5H109.997C108.868 5 107.99 5.8125 107.864 6.875L104.666 43.125C104.603 43.6875 104.792 44.3125 105.231 44.75C105.67 45.1875 106.171 45.4375 106.798 45.4375H112.003L111.188 54.875L121.473 45.4375H133.137C133.702 45.4375 134.203 45.25 134.58 44.8125L145.554 34.1875C145.931 33.8125 146.119 33.375 146.181 32.875L147.498 17.5625C147.624 17.0625 147.436 16.5 147.122 16.0625ZM138.97 30C138.907 30.5 138.719 31 138.342 31.3125L132.008 37.375C131.632 37.75 131.068 37.9375 130.566 37.9375H115.014C114.073 37.9375 113.258 37.3125 113.007 36.4375C112.881 36.1875 112.881 35.9375 112.881 35.6875L114.763 14.4375C114.825 13.375 115.766 12.5 116.832 12.5H132.636C133.263 12.5 133.827 12.75 134.203 13.1875L139.22 18.9375C139.597 19.375 139.785 19.9375 139.722 20.5L138.97 30ZM126.553 34.0625H123.48C123.292 34.0625 123.103 34 123.041 33.875C122.978 33.75 122.853 33.5625 122.853 33.375L123.103 30.3125C123.103 30 123.417 29.75 123.731 29.75H126.803C126.992 29.75 127.18 29.8125 127.242 29.9375C127.305 30.0625 127.431 30.25 127.431 30.4375L127.18 33.5C127.18 33.8125 126.866 34.0625 126.553 34.0625ZM127.117 28.25H123.981C123.605 28.25 123.354 28 123.354 27.625L124.17 17.9375C124.232 17.625 124.483 17.375 124.797 17.375H127.932C128.308 17.375 128.559 17.625 128.559 18L127.681 27.6875C127.681 28 127.431 28.25 127.117 28.25Z" fill="white"/>
</g>
<defs>
<clipPath id="clip0_32_75">
<rect width="148" height="50" fill="white"/>
</clipPath>
</defs>
</svg>
