<svg width="40" height="40" viewBox="0 0 40 40" fill="none" xmlns="http://www.w3.org/2000/svg">
<path fill-rule="evenodd" clip-rule="evenodd" d="M40 5.6481C40 2.52875 37.4713 0 34.3519 0H5.6481C2.52875 0 0 2.52875 0 5.6481V34.3519C0 37.4713 2.52875 40 5.6481 40H34.3519C37.4713 40 40 37.4713 40 34.3519V5.6481ZM33.138 17.4458C30.5572 17.4746 28.1525 16.6945 26.041 15.2495V25.3931C26.041 29.9014 22.9551 33.7742 18.5913 34.7855C12.6379 36.1438 7.59805 31.8378 6.9624 26.6938C6.2977 21.5496 9.5785 17.0413 14.607 16.0298C15.5896 15.8275 17.0674 15.8275 17.8299 16.0009V21.434C17.5953 21.3763 17.3756 21.3185 17.1445 21.2896C15.1793 20.9427 13.2759 21.9253 12.4956 23.7171C11.7153 25.509 12.2376 27.5896 13.827 28.8035C15.1563 29.8438 16.6313 29.9883 18.1341 29.2947C19.6369 28.6301 20.4445 27.4163 20.6178 25.769C20.6467 25.5379 20.6452 25.2778 20.6452 25.0177V5.5103C20.6452 4.96125 20.6495 4.9852 21.1986 4.9852H25.5046C25.8225 4.9852 25.9382 5.03095 25.9671 5.40685C26.1981 8.7592 28.7434 11.6142 32.009 12.0477C32.3558 12.1055 32.7274 12.1284 33.138 12.1572V17.4458Z" fill="white"/>
</svg>
