<svg width="40" height="40" viewBox="0 0 40 40" fill="none" xmlns="http://www.w3.org/2000/svg">
<g clip-path="url(#clip0_51_106)">
<path d="M19.9873 40C31.0261 40 39.9747 31.0457 39.9747 20C39.9747 8.9543 31.0261 0 19.9873 0C8.94864 0 0 8.9543 0 20C0 31.0457 8.94864 40 19.9873 40Z" fill="white"/>
<path d="M35.1774 16.0177L35.048 15.4114L29.9527 14.5184L32.919 10.4975L32.5775 10.1034L28.2175 12.2062L28.7684 6.63365L28.3222 6.37183L25.6699 10.8916L22.7009 4.16431H22.1776L22.8854 10.6546L15.3994 4.63558L14.7687 4.82023L20.5223 12.1014L9.12259 8.28998L8.59652 8.86873L18.7871 14.7031L4.73512 15.8854L4.57812 16.7535L19.181 18.3547L6.99357 28.5022L7.51963 29.2105L22.0178 21.2733L19.1562 35.257H20.0238L25.59 22.089L28.9805 32.3909L29.5837 31.9168L28.1927 21.4579L33.4698 27.477L33.8114 26.923L29.7682 19.4599L35.4144 21.5627L35.4667 20.9316L30.3989 17.1725L35.1774 16.0177Z" fill="black"/>
</g>
<defs>
<clipPath id="clip0_51_106">
<rect width="40" height="40" fill="white"/>
</clipPath>
</defs>
</svg>
